<?xml version="1.0" standalone="no"?><!DOCTYPE svg PUBLIC "-//W3C//DTD SVG 1.1//EN" "http://www.w3.org/Graphics/SVG/1.1/DTD/svg11.dtd"><svg t="1685886375584" class="icon" viewBox="0 0 1024 1024" version="1.1" xmlns="http://www.w3.org/2000/svg" p-id="12082" xmlns:xlink="http://www.w3.org/1999/xlink" width="200" height="200"><path d="M338.132911 98.932594c-20.540832 27.546614-34.836277 60.223366-43.251327 94.13703-91.034614-16.901069-209.413069 8.85101-267.395802 138.432633-30.010297 70.118653-25.437782 143.461386 12.561743 208.247129 1.054416 1.926337 2.230495 3.781703 3.467406 5.576238 17.195089 27.779802 40.96 52.234139 67.695524 71.781386a253.394376 253.394376 0 0 0-25.995405 75.198099c-10.01695 57.556911 0 113.00499 28.2259 161.20396 11.010535 19.009901 24.94099 36.651089 41.466931 52.984396l2.463683 2.534654 4.156832 3.284911c116.452119 90.84198 238.115485 64.664079 307.605545 14.102812 3.964198 5.079446 6.630653 10.523881 11.203168 15.106534 64.785743 67.452198 179.220277 115.661307 305.456158 48.148277l3.041584-1.612039 4.31905-2.909782c66.032792-46.161109 102.420277-118.317624 102.420277-203.299485-0.121663-36.012356-9.155168-70.666139-21.899406-102.977901 2.838812-1.297743 6.245386-2.656317 9.084198-4.075723 76.181545-39.429069 154.776079-137.074059 125.130773-282.512475l-0.608317-3.345743-1.68301-4.886812a242.566337 242.566337 0 0 0-21.351921-47.590653c-29.706139-50.753901-76.546535-87.26305-135.887842-104.904238-30.010297-8.972673-61.328475-12.125782-92.018059-10.077782a244.604198 244.604198 0 0 0-31.003881-88.935921C691.676515 75.11699 630.71303 23.866297 534.548277 9.51002L531.16198 9.023366l-5.201109-0.36499C451.127762 6.356911 382.692119 39.337822 338.122772 98.942733" fill="#231916" p-id="12083"></path><path d="M831.71105 287.257347c-44.670733-13.433663-94.116752-10.392079-132.359604 6.438019 1.794535-17.458693 2.77798-39.794059-0.121664-62.251089-8.354218-65.049347-58.601188-147.23295-173.339881-164.559841l-1.794535-0.131802c-56.309861-1.662733-105.745743 22.031208-139.233584 67.026376-28.955881 38.739644-43.383129 90.47699-39.794059 135.593822a254.448792 254.448792 0 0 0-47.519683-17.022733c-74.31604-18.756436-170.237465-1.601901-217.027169 102.977901-22.710495 53.166891-18.310337 109.851881 12.318416 159.419564 24.50503 39.297267 64.359921 70.311287 104.833267 84.109941-27.546614 24.880158-47.955644 62.504554-55.14392 103.474693-10.584713 60.649188 8.546851 118.571089 53.349386 162.826139l0.679287 0.740118 0.679287 0.425822c91.399604 71.477228 185.465663 51.301386 238.368951 12.632713 19.243089-14.173782 34.714614-29.76697 45.613623-42.085386 8.222416 18.878099 21.777743 44.609901 40.899169 64.177426 24.322535 25.245149 113.674139 102.977901 236.148594 37.249267l0.861782-0.486653 0.679287-0.506931c50.003644-34.836277 77.540119-90.030891 77.540119-155.455366-0.182495-51.362218-17.70202-101.051564-45.42099-133.302496 17.762851-5.444436 41.892752-13.920317 64.045623-25.366811 58.357861-30.263762 118.013465-105.522693 94.86701-219.267802l-0.182495-0.861783-0.304158-0.87192c-18.817267-56.999287-60.963485-97.655129-118.631921-114.921188" fill="#00B6ED" p-id="12084"></path><path d="M348.129584 466.751366l-0.060832 0.121664c-17.641188 40.605149-18.310337 85.843644-1.916198 127.178772a165.29996 165.29996 0 0 0 88.368159 91.348911c40.534178 17.641188 85.711842 18.381307 127.168634 1.855366 41.091802-16.08998 73.575921-47.408158 91.27794-88.256633a165.107327 165.107327 0 0 0 2.108832-127.300436 165.330376 165.330376 0 0 0-88.499961-91.348911c-40.716673-17.691881-85.823366-18.249505-127.168633-1.966891-41.020832 16.211644-73.454257 47.519683-91.277941 88.368158" fill="#FFF000" p-id="12085"></path></svg>